<?xml version="1.0" standalone="no"?>
<!DOCTYPE svg PUBLIC "-//W3C//DTD SVG 20010904//EN"
 "http://www.w3.org/TR/2001/REC-SVG-20010904/DTD/svg10.dtd">
<svg version="1.0" xmlns="http://www.w3.org/2000/svg"
 width="284.000000pt" height="196.000000pt" viewBox="0 0 284.000000 196.000000"
 preserveAspectRatio="xMidYMid meet">

<g transform="translate(0.000000,196.000000) scale(0.100000,-0.100000)"
fill="#000000" stroke="none">
<path d="M2403 1945 c-81 -22 -126 -49 -176 -105 -126 -140 -121 -348 12 -481
72 -71 141 -99 246 -99 105 0 174 28 246 99 212 213 80 567 -224 596 -31 3
-73 -1 -104 -10z m194 -56 c204 -77 258 -348 98 -503 -144 -140 -382 -103
-480 75 -27 49 -30 63 -30 144 0 78 4 97 27 141 72 137 237 198 385 143z"/>
<path d="M2443 1747 l-173 -62 0 -37 c0 -21 4 -38 10 -38 5 0 32 9 59 20 l50
19 3 -133 3 -133 113 40 112 40 0 173 c0 96 -1 174 -2 173 -2 0 -81 -28 -175
-62z"/>
<path d="M27 1813 l-27 -4 0 -905 0 -904 198 0 c496 0 710 50 867 201 69 66
107 134 130 231 42 179 -6 345 -129 447 -47 38 -158 91 -191 91 -24 0 -17 18
13 34 47 25 130 119 157 178 99 218 14 467 -196 570 -116 57 -148 61 -484 63
-171 2 -322 1 -338 -2z m485 -223 c191 -28 302 -154 284 -324 -15 -146 -111
-245 -278 -286 -34 -9 -48 -17 -48 -29 0 -13 22 -22 98 -39 204 -47 301 -125
331 -270 25 -122 5 -215 -61 -279 -89 -85 -187 -113 -410 -113 l-148 0 0 675
0 675 83 0 c45 0 112 -5 149 -10z"/>
<path d="M1087 1813 c-15 -4 -10 -13 31 -57 28 -29 64 -78 82 -109 l32 -57
101 0 c56 0 126 -7 155 -14 154 -41 241 -155 230 -301 -13 -152 -114 -246
-320 -295 -46 -11 -98 -20 -116 -20 -43 0 -55 -27 -21 -49 13 -8 56 -47 96
-86 71 -69 154 -184 448 -618 l140 -206 178 -1 c97 0 177 2 177 5 0 5 -136
195 -465 650 -83 116 -155 215 -159 222 -4 8 14 22 56 41 271 124 371 441 213
678 -81 123 -216 188 -440 214 -89 10 -383 12 -418 3z"/>
</g>
</svg>
